<?xml version="1.0" encoding="UTF-8"?>
<svg version="1.1" xmlns="http://www.w3.org/2000/svg" width="1080" height="1080">
<path d="M0,0 L279,0 L307,3 L335,9 L359,17 L379,26 L396,36 L410,46 L421,55 L433,66 L446,80 L459,97 L472,118 L482,139 L491,164 L497,189 L501,216 L502,229 L502,270 L499,299 L494,324 L486,350 L478,368 L469,385 L458,401 L449,412 L438,424 L430,432 L416,443 L402,453 L380,465 L357,474 L334,481 L308,486 L282,489 L153,489 L153,754 L0,754 Z M153,128 L153,362 L258,362 L279,360 L295,355 L308,348 L319,339 L326,331 L334,318 L339,307 L344,290 L347,270 L347,231 L344,210 L339,191 L331,173 L324,162 L313,149 L303,141 L293,135 L279,130 L268,128 Z " fill="#80D8FF" transform="translate(537,183)"/>
<path d="M0,0 L432,0 L432,128 L153,128 L153,305 L390,305 L390,428 L153,428 L153,627 L433,627 L433,754 L0,754 Z " fill="#80D7FF" transform="translate(47,183)"/>
</svg>
